<?xml version="1.0" standalone="no"?>
<!DOCTYPE svg PUBLIC "-//W3C//DTD SVG 20010904//EN"
 "http://www.w3.org/TR/2001/REC-SVG-20010904/DTD/svg10.dtd">
<svg version="1.0" xmlns="http://www.w3.org/2000/svg"
 width="420.000000pt" height="420.000000pt" viewBox="0 0 420.000000 420.000000"
 preserveAspectRatio="xMidYMid meet">
<metadata>
Created by potrace 1.14, written by Peter Selinger 2001-2017
</metadata>
<g transform="translate(0.000000,420.000000) scale(0.100000,-0.100000)"
fill="#000000" stroke="none">
<path d="M1622 3519 c-40 -4 -85 -12 -100 -17 -15 -6 -47 -15 -72 -21 -110
-25 -215 -83 -314 -173 -17 -16 -34 -28 -38 -28 -11 0 -98 -87 -98 -99 0 -6
-4 -11 -8 -11 -12 0 -40 -67 -53 -129 -7 -34 -9 -81 -4 -125 4 -39 7 -75 6
-81 -15 -204 -15 -206 49 -420 16 -55 30 -103 30 -106 0 -3 -14 -6 -31 -7 -20
0 -40 -11 -59 -31 -27 -28 -29 -35 -27 -98 4 -80 35 -157 99 -243 54 -71 61
-78 93 -90 21 -8 35 -7 58 5 49 25 54 23 136 -55 21 -19 52 -46 70 -60 18 -14
38 -30 44 -35 22 -20 92 -60 100 -57 4 1 7 -3 7 -9 0 -5 5 -7 11 -4 12 8 9
-17 -16 -120 -20 -83 -23 -98 -24 -107 -2 -17 -189 -175 -350 -297 -33 -25
-98 -117 -93 -133 1 -4 -3 -8 -9 -8 -5 0 -8 -4 -4 -9 3 -5 1 -12 -4 -15 -9 -6
-69 -151 -77 -188 -24 -107 -26 -125 -39 -298 -3 -41 -8 -97 -10 -125 -7 -80
-14 -164 -21 -247 l-6 -78 982 0 982 0 -6 108 c-4 59 -9 132 -11 162 -5 53 -9
107 -20 250 -3 36 -7 83 -10 105 -2 22 -7 85 -11 140 -3 55 -8 103 -11 108 -8
14 19 7 48 -13 15 -12 42 -26 59 -31 16 -6 30 -14 30 -19 0 -4 15 -14 33 -21
17 -7 37 -17 42 -21 28 -23 158 -108 165 -108 4 0 10 -7 14 -15 3 -8 12 -15
20 -15 8 0 16 -4 18 -9 4 -12 163 -131 212 -160 37 -21 100 -45 150 -58 11 -3
53 -7 93 -8 76 -3 134 17 181 61 20 19 61 91 66 116 2 7 6 24 9 38 15 58 19
91 22 205 3 97 -2 151 -25 285 -32 184 -37 218 -45 305 -12 119 -15 131 -35
189 -11 33 -31 78 -45 101 -13 23 -22 45 -19 47 12 13 12 55 -2 136 -25 148
-34 182 -52 183 -10 0 0 7 21 14 35 13 95 50 107 66 3 3 14 19 25 34 11 14 28
36 38 47 9 12 17 27 17 35 0 7 4 13 9 13 5 0 14 13 21 30 7 16 21 40 31 52 23
28 26 32 64 83 16 22 40 51 52 65 13 14 23 30 23 37 0 7 5 13 10 13 6 0 10 6
10 14 0 8 5 16 10 18 6 2 13 16 15 31 4 20 -1 34 -19 52 -13 13 -30 22 -37 21
-28 -5 -59 -18 -59 -24 0 -4 -14 -23 -30 -42 -39 -45 -41 -49 -70 -90 -23 -33
-58 -70 -67 -70 -6 0 0 9 74 117 35 51 63 97 63 103 0 5 4 10 8 10 5 0 15 12
23 28 8 15 22 36 31 46 10 10 15 23 12 28 -3 4 0 8 5 8 6 0 11 7 11 15 0 8 5
15 10 15 6 0 10 13 10 30 0 61 -76 92 -117 48 -29 -32 -93 -126 -93 -136 0 -5
-9 -17 -20 -27 -11 -10 -20 -24 -20 -31 0 -7 -3 -14 -7 -16 -10 -4 -53 -65
-53 -73 0 -8 -27 -35 -34 -35 -6 0 19 51 47 95 6 11 31 50 53 86 23 36 45 76
49 88 3 11 11 21 16 21 6 0 8 4 5 9 -4 5 -2 11 2 13 11 4 62 113 62 132 0 42
-75 71 -111 43 -18 -14 -109 -161 -109 -176 0 -6 -4 -11 -9 -11 -5 0 -15 -15
-22 -32 -7 -18 -19 -39 -26 -46 -7 -7 -13 -20 -13 -28 0 -8 -4 -14 -9 -14 -5
0 -11 -8 -15 -17 -3 -10 -11 -27 -18 -38 -24 -37 -49 -44 -29 -8 5 10 21 41
34 68 13 28 34 67 46 88 11 21 21 43 21 49 0 6 6 19 14 27 7 9 20 37 28 62 14
41 14 48 -1 67 -20 26 -63 37 -88 24 -10 -6 -29 -32 -42 -59 -13 -26 -32 -60
-42 -74 -10 -14 -16 -29 -12 -33 3 -3 0 -6 -7 -6 -7 0 -11 -2 -8 -5 10 -11
-126 -264 -151 -279 -12 -8 -37 32 -50 81 -20 74 -63 112 -133 119 -31 3 -44
-1 -63 -21 -34 -33 -31 -53 11 -108 52 -67 63 -106 60 -221 -4 -123 15 -238
54 -327 33 -74 40 -125 16 -116 -8 3 -19 0 -24 -6 -13 -17 -6 -290 8 -316 6
-12 8 -31 4 -44 -4 -12 -9 -26 -10 -32 -15 -66 -19 -112 -18 -237 0 -82 -3
-148 -6 -148 -4 0 -16 8 -28 17 -11 10 -33 27 -48 38 -16 11 -74 65 -129 120
-56 55 -116 111 -134 125 -18 14 -42 33 -53 43 -12 9 -25 17 -30 17 -5 0 -16
7 -25 15 -8 8 -19 13 -24 10 -5 -4 -9 -2 -9 2 0 5 -30 17 -67 26 -174 44 -223
41 -407 -21 l-146 -50 97 97 c111 111 111 111 151 178 36 59 68 153 71 210 1
7 12 11 31 8 57 -7 79 63 84 270 3 154 -71 249 -140 178 -14 -16 -24 -23 -20
-16 8 15 9 248 2 315 -10 82 -56 205 -91 243 -19 19 -36 49 -40 67 -4 18 -14
41 -22 50 -9 10 -19 38 -24 63 -10 52 -33 88 -69 107 -14 7 -32 21 -41 30 -9
10 -21 18 -28 18 -6 0 -11 3 -11 8 0 12 -106 58 -185 78 -68 18 -221 24 -333
13z"/>
</g>
</svg>
